<svg width="2437" height="525" viewBox="0 0 2437 525" fill="none" xmlns="http://www.w3.org/2000/svg">
<g clip-path="url(#clip0_2004_76)">
<mask id="mask0_2004_76" style="mask-type:luminance" maskUnits="userSpaceOnUse" x="0" y="0" width="2437" height="525">
<path d="M2437 0H0V525H2437V0Z" fill="white"/>
</mask>
<g mask="url(#mask0_2004_76)">
<path d="M1005 306.125C1004.45 324.969 1011.79 340.559 1022.41 354.837C1034.8 371.504 1049.97 385.262 1067.68 396.104C1082.93 405.443 1099.42 411.706 1117.22 413.92C1126.67 415.096 1136.28 416.204 1145.76 415.828C1168.08 414.942 1188.91 408.236 1208.29 397.175C1221.66 389.548 1233.53 379.99 1243.87 368.603C1261.96 348.701 1274.29 325.833 1280.12 299.42C1282.87 286.974 1284.49 274.485 1283.94 261.805C1283.12 243.131 1279.12 225.121 1272.36 207.624C1263.65 185.114 1251.94 164.486 1236.47 145.925C1216.81 122.332 1192.98 104.262 1165.08 91.6166C1147.43 83.6199 1129.09 77.4375 1109.8 75.1177C1093.66 73.1779 1077.4 71.3092 1061.19 71.3177C1047.7 71.3247 1034.08 73.3821 1020.75 75.846C1005.4 78.6861 990.309 82.9694 974.594 86.7485C978.617 83.5113 982.268 79.8335 986.573 77.2414C1002.3 67.7739 1017.8 57.7811 1034.21 49.6531C1054.32 39.6934 1075.93 33.8109 1098.12 29.8501C1117.69 26.3563 1137.38 26.2301 1156.97 27.2531C1181.76 28.548 1205.71 34.6303 1228.88 43.889C1250.51 52.5353 1270.41 64.1357 1288.62 78.4342C1303.13 89.8267 1316.81 102.35 1327.27 117.781C1336.3 131.095 1345.81 144.21 1353.4 158.332C1362.62 175.482 1369.34 193.92 1372.86 213.166C1375.58 228.081 1377.58 243.188 1378.81 258.298C1379.76 269.913 1380.06 281.787 1378.74 293.328C1376.98 308.639 1374.29 323.979 1370.36 338.874C1363.64 364.342 1352.49 388.019 1337.06 409.458C1330.86 418.073 1323.94 426.178 1317.12 434.335C1301.6 452.923 1282.36 467.117 1261.82 479.472C1244.37 489.96 1225.8 498.299 1205.89 502.951C1192.14 506.163 1178.25 509.296 1164.25 510.746C1149.78 512.245 1134.99 512.88 1120.52 511.669C1105.03 510.371 1089.53 507.345 1074.43 503.532C1047.78 496.807 1022.71 485.814 1000.3 469.843C986.591 460.073 973.152 449.484 961.425 437.473C940.85 416.399 925.045 391.845 916.818 363.217C913.647 352.181 911.58 340.722 910.186 329.312C908.946 319.162 908.526 308.764 909.152 298.562C910.997 268.449 918.803 240.123 937.702 215.898C958.768 188.895 986.791 172.621 1019.89 165.21C1035.04 161.818 1050.67 160.915 1066.18 162.125C1085.41 163.626 1104.13 167.641 1121.43 176.789C1133.31 183.075 1144.17 190.704 1154.3 199.609C1165.79 209.709 1175.27 221.256 1181.47 235.131C1191.26 257.025 1188.58 277.949 1170.09 295.461C1150.05 314.447 1113.72 310.306 1099.06 286.104C1091.6 273.784 1081.8 264.745 1067.58 260.865C1050.19 256.12 1035.02 260.16 1021.67 271.861C1011.47 280.801 1005.83 292.054 1005 306.125Z" fill="#CC4325"/>
<path d="M14 390.001C14 305.208 14 220.914 14 136.311C43.6985 136.311 73.115 136.311 102.439 136.311C126.111 174.733 149.8 213.181 173.693 251.961C180.277 241.327 186.846 230.773 193.36 220.186C206.131 199.429 218.857 178.645 231.635 157.893C235.64 151.389 239.678 144.902 243.882 138.526C244.634 137.385 246.269 136.114 247.502 136.108C276.136 135.972 304.77 136.003 333.702 136.003C333.702 236.688 333.702 337.069 333.702 437.725C305.926 437.725 278.203 437.725 250.07 437.725C250.07 381.845 250.07 326.11 250.07 270.375C249.62 270.126 249.171 269.878 248.722 269.629C246.615 272.468 244.357 275.208 242.427 278.163C231.936 294.217 221.51 310.313 211.094 326.416C199.621 344.152 188.17 361.903 176.74 379.667C173.902 384.078 172.344 384.231 169.559 380.008C152.819 354.632 136.067 329.264 119.415 303.83C112.473 293.227 105.776 282.464 98.9264 271.8C98.4529 271.063 97.6325 270.548 96.2885 269.288C96.2885 325.892 96.2885 381.58 96.2885 437.634C68.7777 437.634 41.7205 437.634 14 437.634C14 422.013 14 406.257 14 390.001Z" fill="#CC4325"/>
<path d="M1600 135.999C1617.83 135.999 1635.16 135.804 1652.49 136.051C1672.22 136.332 1692.06 136.395 1711.34 141.127C1730.18 145.749 1747.47 153.392 1761.98 167.169C1776.22 180.693 1785.3 196.855 1788.63 215.703C1793.76 244.65 1791.49 272.874 1773.94 297.883C1762.88 313.648 1748.1 325.103 1729.43 332.92C1753.24 367.754 1777.01 402.521 1801.26 437.999C1798.85 437.999 1797.27 437.999 1795.7 437.999C1766.54 437.999 1737.38 437.896 1708.22 438.123C1704.34 438.153 1702.28 436.772 1700.32 433.806C1681.98 405.978 1663.57 378.192 1645.08 350.458C1644.11 349.011 1642.31 347.189 1640.85 347.153C1629.74 346.877 1618.61 347.002 1607.18 347.002C1607.18 377.349 1607.18 407.288 1607.18 437.613C1579.15 437.613 1551.43 437.613 1523.35 437.613C1523.35 337.418 1523.35 237.039 1523.35 135.999C1548.66 135.999 1574.08 135.999 1600 135.999ZM1607 234.499C1607 249.914 1607 265.329 1607 280C1628.36 280 1649.09 280.367 1669.8 279.881C1685.62 279.511 1702.97 270.24 1705.59 250.809C1707 240.386 1705.43 230.58 1697.95 222.456C1689.9 213.702 1679.38 210.378 1668.04 210.116C1649.4 209.685 1630.74 209.994 1612.09 210.009C1610.49 210.01 1608.88 210.144 1607 210.229C1607 218.232 1607 225.866 1607 234.499Z" fill="#CC4325"/>
<path d="M739.255 278.607C746.645 295.967 753.818 312.997 761.05 330.002C767.904 346.119 774.877 362.185 781.696 378.318C789.645 397.127 797.49 415.98 805.352 434.826C805.709 435.683 805.787 436.657 806.047 437.809C804.435 437.882 803.12 437.992 801.805 437.993C774.649 438.003 747.492 437.933 720.337 438.09C717.146 438.109 715.699 436.98 714.607 434.233C708.443 418.725 702.258 403.224 695.807 387.835C695.112 386.178 692.662 384.17 691.016 384.161C653.876 383.952 616.735 384.001 579.587 384.001C572.671 401.323 565.876 418.469 558.897 435.541C558.442 436.654 556.585 437.891 555.374 437.896C527.071 438.029 498.766 437.999 469.343 437.999C470.92 433.87 472.162 430.32 473.617 426.858C486.176 396.967 498.727 367.073 511.372 337.218C522.944 309.895 534.701 282.65 546.244 255.314C557.342 229.035 568.251 202.676 579.279 176.367C584.856 163.061 590.445 149.758 596.244 136.548C596.772 135.344 598.874 134.115 600.251 134.107C626.234 133.963 652.218 134.001 678.356 134.001C691.356 164.62 704.378 195.147 717.276 225.727C724.644 243.195 731.808 260.75 739.255 278.607ZM615.471 290.029C611.892 299.17 608.314 308.31 604.646 317.681C626.453 317.681 647.636 317.681 669.114 317.681C668.857 316.537 668.781 315.723 668.495 314.992C660.7 295.122 652.884 275.26 645.069 255.398C643.133 250.479 641.269 245.528 639.151 240.688C638.836 239.967 636.532 239.288 636.447 239.421C635.464 240.959 634.629 242.617 633.946 244.32C627.92 259.332 621.932 274.36 615.471 290.029Z" fill="#CC4325"/>
<path d="M2313 182C2325.47 182 2337.44 182 2349.88 182C2349.88 207.02 2349.88 231.742 2349.88 256.941C2375.08 256.941 2399.8 256.941 2424.76 256.941C2424.76 281.355 2424.76 305.29 2424.76 329.706C2400.16 329.706 2375.44 329.706 2350.23 329.706C2350.23 354.568 2350.23 378.957 2350.23 403.671C2324.7 403.671 2299.65 403.671 2274.12 403.671C2274.12 379.313 2274.12 354.924 2274.12 330.058C2248.92 330.058 2224.2 330.058 2199.24 330.058C2199.24 305.645 2199.24 281.71 2199.24 257.293C2223.84 257.293 2248.56 257.293 2273.76 257.293C2273.76 232.099 2273.76 207.376 2273.76 182C2286.99 182 2299.74 182 2313 182Z" fill="#CC4325"/>
<path d="M1985 136C1998.47 136 2011.43 136 2024.7 136C2024.7 236.65 2024.7 336.999 2024.7 437.674C1997.04 437.674 1969.32 437.674 1941.3 437.674C1941.3 337.351 1941.3 237.001 1941.3 136C1955.66 136 1970.08 136 1985 136Z" fill="#CC4325"/>
<path d="M559.043 68.001C555.908 68.001 553.266 68.001 550.314 68.001C550.314 50.0142 550.314 32.3005 550.314 14.293C605.672 14.293 661.024 14.293 716.688 14.293C716.688 31.9916 716.688 49.7053 716.688 68.001C664.298 68.001 611.917 68.001 559.043 68.001Z" fill="#CC4325"/>
</g>
</g>
<defs>
<clipPath id="clip0_2004_76">
<rect width="2437" height="525" fill="white"/>
</clipPath>
</defs>
</svg>
